# xmcd CD database file
#
# Track frame offsets:
#	187
#	12382
#	23392
#	36020
#	50602
#	62665
#	73587
#	85920
#	100845
#	114565
#	127685
#	138032
#	150965
#	160752
#	175705
#	188515
#	202127
#	213815
#	224115
#	236747
#
# Disc length: 3319 seconds
#
# Revision: 7
# Processed by: cddbd v1.5.2PL0 Copyright (c) Steve Scherf et al.
# Submitted via: jetAudio 7
#
DISCID=040cf514
DTITLE=Chet Atkins - Country Gems
DYEAR=1900
DGENRE=Country
TTITLE0=Rocky Top
TTITLE1=I Can't Stop Loving You
TTITLE2=Harper Valley P.T.A.
TTITLE3=And I Love You So
TTITLE4=Java
TTITLE5=Make The World Go Away
TTITLE6=Folsom Prison Blues
TTITLE7=The Three Bells
TTITLE8=On The Road Again
TTITLE9=That's What I Get For Loving You
TTITLE10=Oh, Lonesome Me
TTITLE11=Abilene
TTITLE12=Tenessee Pride
TTITLE13=Detroit City
TTITLE14=Amos Moses
TTITLE15=Sweet Dreams
TTITLE16=Country Champagne
TTITLE17=Pickin' My Way
TTITLE18=Gotta Travel On
TTITLE19=Bring Me Sunshine
EXTD=
EXTT0=
EXTT1=
EXTT2=
EXTT3=
EXTT4=
EXTT5=
EXTT6=
EXTT7=
EXTT8=
EXTT9=
EXTT10=
EXTT11=
EXTT12=
EXTT13=
EXTT14=
EXTT15=
EXTT16=
EXTT17=
EXTT18=
EXTT19=
PLAYORDER=
